# xmcd
#
# Track frame offsets: 
#        183
#        27193
#        62500
#        87455
#        106850
#        124725
#        150588
#        181095
#        289020
#
# Disc length: 4349 seconds
#
# Revision: 1
# Processed by: cddbd v1.5.2PL0 Copyright (c) Steve Scherf et al.
# Submitted via: ExactAudioCopy v0.99pb5
#
DISCID=6b10fb09
DTITLE=Keshavan Maslak - Mother Russia
DYEAR=1991
DGENRE=Jazz
TTITLE0=kenny millions praises the mother
TTITLE1=kenny meets misha meets hieronymus bosch
TTITLE2=1 million little russians
TTITLE3=2 million little russians
TTITLE4=3 million little russians
TTITLE5=4 million little russians
TTITLE6=5 million little russians
TTITLE7=kenny talks turkey with vladimir
TTITLE8=kenny millions searches for zen
EXTD=
EXTT0=
EXTT1=
EXTT2=
EXTT3=
EXTT4=
EXTT5=
EXTT6=
EXTT7=
EXTT8=
PLAYORDER=
